<?xml version="1.0" encoding="utf-8"?>
<!-- Generator: Adobe Illustrator 16.0.0, SVG Export Plug-In . SVG Version: 6.00 Build 0)  -->
<!DOCTYPE svg PUBLIC "-//W3C//DTD SVG 1.1//EN" "http://www.w3.org/Graphics/SVG/1.1/DTD/svg11.dtd">
<svg version="1.1" id="Layer_1" xmlns="http://www.w3.org/2000/svg" xmlns:xlink="http://www.w3.org/1999/xlink" x="0px" y="0px"
	 width="200px" height="200px" viewBox="0 0 200 200" enable-background="new 0 0 200 200" xml:space="preserve">
<rect x="0.123" y="0.061" width="199.877" height="199.878"/>
<g>
	<circle cx="99.076" cy="100" r="73.836"/>
	<path fill="#FFFFFF" d="M99.076,177.084c-42.504,0-77.084-34.579-77.084-77.084c0-42.503,34.58-77.083,77.084-77.083
		c42.505,0,77.083,34.58,77.083,77.083C176.159,142.505,141.581,177.084,99.076,177.084z M99.076,29.413
		c-38.922,0-70.588,31.666-70.588,70.587c0,38.923,31.666,70.588,70.588,70.588c38.922,0,70.587-31.665,70.587-70.588
		C169.663,61.079,137.998,29.413,99.076,29.413z"/>
</g>
<g>
	<path fill="#FFFFFF" d="M59.354,115.774l18.767-1.825c1.13,6.3,3.421,10.927,6.875,13.881c3.454,2.955,8.113,4.431,13.977,4.431
		c6.211,0,10.892-1.313,14.042-3.941c3.149-2.629,4.724-5.703,4.724-9.222c0-2.258-0.662-4.181-1.987-5.767
		s-3.639-2.964-6.939-4.138c-2.258-0.781-7.408-2.172-15.443-4.171c-10.339-2.563-17.593-5.711-21.764-9.448
		c-5.865-5.256-8.797-11.665-8.797-19.223c0-4.865,1.378-9.416,4.137-13.651c2.759-4.236,6.733-7.461,11.925-9.677
		c5.19-2.216,11.458-3.323,18.799-3.323c11.989,0,21.015,2.629,27.076,7.884c6.059,5.257,9.24,12.273,9.545,21.047l-19.288,0.848
		c-0.825-4.909-2.598-8.439-5.311-10.589c-2.715-2.15-6.787-3.225-12.218-3.225c-5.604,0-9.992,1.151-13.163,3.454
		c-2.042,1.477-3.063,3.454-3.063,5.929c0,2.259,0.955,4.193,2.868,5.8c2.432,2.042,8.34,4.17,17.724,6.386
		c9.383,2.216,16.322,4.507,20.818,6.875c4.496,2.368,8.016,5.604,10.558,9.709c2.54,4.105,3.812,9.178,3.812,15.215
		c0,5.474-1.522,10.6-4.563,15.379c-3.041,4.777-7.342,8.329-12.9,10.653c-5.563,2.323-12.489,3.486-20.788,3.486
		c-12.078,0-21.351-2.791-27.824-8.373C64.48,134.597,60.614,126.461,59.354,115.774z"/>
</g>
</svg>
